<svg width="17" height="15" viewBox="0 0 17 15" fill="none" xmlns="http://www.w3.org/2000/svg">
<path d="M3.48409 1.5C2.94836 1.64006 2.45984 1.91534 2.06766 2.29815C1.67549 2.68097 1.39348 3.15783 1.25 3.68078M13.0159 1.5C13.5516 1.64006 14.0402 1.91534 14.4323 2.29815C14.8245 2.68097 15.1065 3.15783 15.25 3.68078" fill="#F6F7FA"/>
<path d="M3.48409 1.5C2.94836 1.64006 2.45984 1.91534 2.06766 2.29815C1.67549 2.68097 1.39348 3.15783 1.25 3.68078M13.0159 1.5C13.5516 1.64006 14.0402 1.91534 14.4323 2.29815C14.8245 2.68097 15.1065 3.15783 15.25 3.68078" stroke="#F6F7FA" stroke-width="2" stroke-linecap="round"/>
<path d="M12.3674 12.3358C11.2772 13.4 9.79612 13.9999 8.24933 13.9999C6.70254 13.9999 5.22146 13.4 4.13131 12.3358C3.04157 11.2721 2.43164 9.83197 2.43164 8.33295C2.43164 6.83394 3.04157 5.3938 4.13131 4.33007C5.22146 3.26593 6.70254 2.66602 8.24933 2.66602C9.79612 2.66602 11.2772 3.26593 12.3674 4.33007C13.4571 5.3938 14.067 6.83394 14.067 8.33295C14.067 9.83197 13.4571 11.2721 12.3674 12.3358ZM9.53904 5.24948C9.53904 4.90848 9.40015 4.58395 9.157 4.3466C8.91425 4.10965 8.58754 3.97862 8.24933 3.97862C7.91112 3.97862 7.58441 4.10965 7.34166 4.3466C7.09851 4.58395 6.95962 4.90848 6.95962 5.24948V8.14024C6.95962 8.95959 7.63717 9.60382 8.44676 9.60382H10.6185C10.9567 9.60382 11.2834 9.47279 11.5261 9.23583C11.7693 8.99848 11.9082 8.67396 11.9082 8.33295C11.9082 7.99195 11.7693 7.66742 11.5261 7.43007C11.2834 7.19312 10.9567 7.06209 10.6185 7.06209H9.53904V5.24948Z" fill="#F6F7FA" stroke="#F6F7FA"/>
</svg>
