<svg width="16" height="14" viewBox="0 0 16 14" fill="none" xmlns="http://www.w3.org/2000/svg">
<path d="M0.272809 3.75667C0.188596 3.83677 0.12105 3.93337 0.0742024 4.04071C0.0273544 4.14804 0.00216358 4.2639 0.000132975 4.38139C-0.00189763 4.49888 0.0192734 4.61558 0.0623831 4.72453C0.105493 4.83348 0.169658 4.93246 0.251051 5.01554C0.332444 5.09863 0.429397 5.16414 0.536126 5.20814C0.642856 5.25215 0.757175 5.27376 0.872264 5.27169C0.987353 5.26962 1.10085 5.2439 1.206 5.19608C1.31114 5.14825 1.40577 5.0793 1.48424 4.99333L3.44995 2.98667L3.44995 13.125C3.44995 13.3571 3.54026 13.5796 3.701 13.7437C3.86175 13.9078 4.07977 14 4.3071 14C4.53442 14 4.75244 13.9078 4.91319 13.7437C5.07393 13.5796 5.16424 13.3571 5.16424 13.125L5.16424 2.98667L7.12995 4.99333C7.20842 5.0793 7.30305 5.14825 7.40819 5.19608C7.51334 5.2439 7.62684 5.26962 7.74193 5.27169C7.85702 5.27376 7.97133 5.25215 8.07806 5.20814C8.18479 5.16414 8.28175 5.09863 8.36314 5.01554C8.44453 4.93246 8.5087 4.83348 8.55181 4.72453C8.59492 4.61558 8.61609 4.49888 8.61406 4.38139C8.61203 4.2639 8.58684 4.14804 8.53999 4.04071C8.49314 3.93337 8.42559 3.83677 8.34138 3.75667L4.91281 0.256667C4.75209 0.0928085 4.53424 0.000770371 4.30709 0.000770381C4.07995 0.000770391 3.8621 0.0928086 3.70138 0.256667L0.272809 3.75667ZM8.91281 9.00667C8.83434 8.9207 8.73971 8.85175 8.63457 8.80392C8.52943 8.7561 8.41592 8.73038 8.30083 8.72831C8.18575 8.72624 8.07143 8.74785 7.9647 8.79186C7.85797 8.83586 7.76102 8.90137 7.67962 8.98446C7.59823 9.06754 7.53406 9.16652 7.49096 9.27547C7.44785 9.38442 7.42667 9.50112 7.4287 9.61861C7.43073 9.7361 7.45593 9.85196 7.50277 9.95929C7.54962 10.0666 7.61717 10.1632 7.70138 10.2433L11.13 13.7433C11.2907 13.9072 11.5085 13.9992 11.7357 13.9992C11.9628 13.9992 12.1807 13.9072 12.3414 13.7433L15.77 10.2433C15.9214 10.0775 16.0038 9.85807 15.9999 9.63139C15.9959 9.40471 15.906 9.18842 15.7489 9.02811C15.5919 8.86779 15.38 8.77596 15.158 8.77196C14.9359 8.76796 14.721 8.85211 14.5585 9.00667L12.5928 11.0133L12.5928 0.874999C12.5928 0.642935 12.5025 0.420376 12.3418 0.256282C12.181 0.0921873 11.963 -5.22919e-07 11.7357 -5.12982e-07C11.5083 -5.03045e-07 11.2903 0.0921874 11.1296 0.256282C10.9688 0.420376 10.8785 0.642935 10.8785 0.875L10.8785 11.0133L8.91281 9.00667Z" fill="#F6F7FA"/>
</svg>
