<svg width="43" height="37" viewBox="0 0 43 37" fill="none" xmlns="http://www.w3.org/2000/svg">
    <path
        d="M17 5.09961L0.283333 13.9056C0.113333 14.9171 0 15.9286 0 16.9996C0 18.0706 0.113333 19.0821 0.283333 20.0936L17 28.8996L33.7167 20.0936C33.8867 19.0821 34 18.0706 34 16.9996C34 15.9286 33.8867 14.9171 33.7167 13.9056L17 5.09961Z"
        fill="#FFE62E" />
    <path
        d="M13.4878 14.959C11.6895 14.959 10.0035 15.3557 8.48616 16.0357C8.42996 16.3757 8.42996 16.659 8.42996 16.999C8.42996 21.7023 12.1953 25.499 16.8597 25.499C20.0068 25.499 22.7605 23.7423 24.2217 21.1923C22.1424 17.509 18.0961 14.959 13.4878 14.959Z"
        fill="#428BC1" />
    <path
        d="M25.1768 18.36C25.233 17.9067 25.2892 17.4533 25.2892 17C25.2892 12.2967 21.5239 8.5 16.8595 8.5C13.5438 8.5 10.6776 10.4267 9.27268 13.26C10.6214 12.8633 12.0264 12.6367 13.4876 12.6367C18.2644 12.6367 22.4793 14.9033 25.1768 18.36Z"
        fill="#428BC1" />
    <path
        d="M13.4876 12.6367C12.0265 12.6367 10.6215 12.8634 9.27275 13.2601C8.87937 14.1101 8.59837 15.0167 8.48598 16.0367C10.0033 15.3567 11.6893 14.9601 13.4876 14.9601C18.0959 14.9601 22.1422 17.4534 24.2215 21.1367C24.7273 20.2867 25.0083 19.3234 25.1769 18.3601C22.4794 14.9034 18.2645 12.6367 13.4876 12.6367Z"
        fill="white" />
    <path
        d="M11.2397 17.566C11.55 17.566 11.8016 17.3122 11.8016 16.9993C11.8016 16.6863 11.55 16.4326 11.2397 16.4326C10.9293 16.4326 10.6777 16.6863 10.6777 16.9993C10.6777 17.3122 10.9293 17.566 11.2397 17.566Z"
        fill="white" />
    <path
        d="M13.4876 20.9663C13.798 20.9663 14.0496 20.7126 14.0496 20.3997C14.0496 20.0867 13.798 19.833 13.4876 19.833C13.1772 19.833 12.9256 20.0867 12.9256 20.3997C12.9256 20.7126 13.1772 20.9663 13.4876 20.9663Z"
        fill="white" />
    <path
        d="M16.8593 20.9663C17.1697 20.9663 17.4213 20.7126 17.4213 20.3997C17.4213 20.0867 17.1697 19.833 16.8593 19.833C16.5489 19.833 16.2973 20.0867 16.2973 20.3997C16.2973 20.7126 16.5489 20.9663 16.8593 20.9663Z"
        fill="white" />
    <path
        d="M16.8593 23.2329C17.1697 23.2329 17.4213 22.9792 17.4213 22.6663C17.4213 22.3533 17.1697 22.0996 16.8593 22.0996C16.5489 22.0996 16.2973 22.3533 16.2973 22.6663C16.2973 22.9792 16.5489 23.2329 16.8593 23.2329Z"
        fill="white" />
    <path
        d="M21.3555 20.9663C21.6658 20.9663 21.9174 20.7126 21.9174 20.3997C21.9174 20.0867 21.6658 19.833 21.3555 19.833C21.0451 19.833 20.7935 20.0867 20.7935 20.3997C20.7935 20.7126 21.0451 20.9663 21.3555 20.9663Z"
        fill="white" />
    <path
        d="M21.3555 23.2329C21.6658 23.2329 21.9174 22.9792 21.9174 22.6663C21.9174 22.3533 21.6658 22.0996 21.3555 22.0996C21.0451 22.0996 20.7935 22.3533 20.7935 22.6663C20.7935 22.9792 21.0451 23.2329 21.3555 23.2329Z"
        fill="white" />
    <path
        d="M19.1075 22.1001C19.4179 22.1001 19.6695 21.8464 19.6695 21.5335C19.6695 21.2205 19.4179 20.9668 19.1075 20.9668C18.7971 20.9668 18.5455 21.2205 18.5455 21.5335C18.5455 21.8464 18.7971 22.1001 19.1075 22.1001Z"
        fill="white" />
    <path
        d="M11.2397 19.8335C11.55 19.8335 11.8016 19.5798 11.8016 19.2669C11.8016 18.9539 11.55 18.7002 11.2397 18.7002C10.9293 18.7002 10.6777 18.9539 10.6777 19.2669C10.6777 19.5798 10.9293 19.8335 11.2397 19.8335Z"
        fill="white" />
    <path
        d="M34 14.0533C32.617 6.06333 25.5288 0 17 0C8.47119 0 1.38305 6.06333 0 14.0533L17 5.66667L34 14.0533ZM0 19.9467C1.38305 27.9367 8.47119 34 17 34C25.5288 34 32.617 27.9367 34 19.9467L17 28.3333L0 19.9467Z"
        fill="#699635" />
    <circle cx="31" cy="25" r="12" fill="#D9D9D9" />
    <path
        d="M31 31.3996C34.5346 31.3996 37.4 28.5342 37.4 24.9996C37.4 21.465 34.5346 18.5996 31 18.5996C27.4654 18.5996 24.6 21.465 24.6 24.9996C24.6 28.5342 27.4654 31.3996 31 31.3996Z"
        fill="#ED1B2F" />
</svg>