<svg width="18" height="18" viewBox="0 0 18 18" fill="none" xmlns="http://www.w3.org/2000/svg">
                <path fill-rule="evenodd" clip-rule="evenodd" d="M15 2H16C16.5304 2 17.0391 2.21071 17.4142 2.58579C17.7893 2.96086 18 3.46957 18 4V6H0V4C0 3.46957 0.210714 2.96086 0.585786 2.58579C0.960859 2.21071 1.46957 2 2 2H3V1C3 0.734784 3.10536 0.48043 3.29289 0.292893C3.48043 0.105357 3.73478 0 4 0C4.26522 0 4.51957 0.105357 4.70711 0.292893C4.89464 0.48043 5 0.734784 5 1V2H8V1C8 0.734784 8.10536 0.48043 8.29289 0.292893C8.48043 0.105357 8.73478 0 9 0C9.26522 0 9.51957 0.105357 9.70711 0.292893C9.89464 0.48043 10 0.734784 10 1V2H13V1C13 0.734784 13.1054 0.48043 13.2929 0.292893C13.4804 0.105357 13.7348 0 14 0C14.2652 0 14.5196 0.105357 14.7071 0.292893C14.8946 0.48043 15 0.734784 15 1V2ZM0 8V16C0 16.5304 0.210714 17.0391 0.585786 17.4142C0.960859 17.7893 1.46957 18 2 18H16C16.5304 18 17.0391 17.7893 17.4142 17.4142C17.7893 17.0391 18 16.5304 18 16V8H9H0ZM8 14.95C8 15.2152 8.10536 15.4696 8.29289 15.6571C8.48043 15.8446 8.73478 15.95 9 15.95C9.26522 15.95 9.51957 15.8446 9.70711 15.6571C9.89464 15.4696 10 15.2152 10 14.95V13.95H11C11.2652 13.95 11.5196 13.8446 11.7071 13.6571C11.8946 13.4696 12 13.2152 12 12.95C12 12.6848 11.8946 12.4304 11.7071 12.2429C11.5196 12.0554 11.2652 11.95 11 11.95H10V10.95C10 10.6848 9.89464 10.4304 9.70711 10.2429C9.51957 10.0554 9.26522 9.95 9 9.95C8.73478 9.95 8.48043 10.0554 8.29289 10.2429C8.10536 10.4304 8 10.6848 8 10.95V11.95H7C6.73478 11.95 6.48043 12.0554 6.29289 12.2429C6.10536 12.4304 6 12.6848 6 12.95C6 13.2152 6.10536 13.4696 6.29289 13.6571C6.48043 13.8446 6.73478 13.95 7 13.95H8V14.95Z" fill="#F6F7FA" />
            </svg>