<svg width="26" height="26" viewBox="0 0 26 26" fill="none" xmlns="http://www.w3.org/2000/svg">
<rect width="26" height="26" rx="13" fill="#2FFE82" fill-opacity="0.3"/>
<path fill-rule="evenodd" clip-rule="evenodd" d="M18.7363 8.30806C18.9052 8.50515 19 8.77242 19 9.0511C19 9.32978 18.9052 9.59706 18.7363 9.79414L11.9869 17.6716C11.8977 17.7757 11.7918 17.8583 11.6752 17.9146C11.5587 17.971 11.4338 18 11.3076 18C11.1814 18 11.0565 17.971 10.94 17.9146C10.8234 17.8583 10.7175 17.7757 10.6283 17.6716L7.27491 13.7584C7.1889 13.6615 7.1203 13.5455 7.07311 13.4173C7.02591 13.2891 7.00107 13.1512 7.00003 13.0116C6.99899 12.8721 7.02178 12.7337 7.06706 12.6045C7.11233 12.4753 7.1792 12.358 7.26375 12.2593C7.3483 12.1606 7.44884 12.0826 7.55951 12.0298C7.67017 11.9769 7.78875 11.9503 7.90831 11.9515C8.02788 11.9527 8.14604 11.9817 8.25591 12.0368C8.36577 12.0919 8.46513 12.172 8.5482 12.2723L11.3073 15.4925L17.4625 8.30806C17.5461 8.2104 17.6454 8.13292 17.7547 8.08007C17.864 8.02721 17.9811 8 18.0994 8C18.2177 8 18.3348 8.02721 18.4441 8.08007C18.5534 8.13292 18.6527 8.2104 18.7363 8.30806Z" fill="#2FFE82"/>
</svg>
