<svg width="18" height="18" viewBox="0 0 18 18" fill="none" xmlns="http://www.w3.org/2000/svg">
                    <path d="M13 11.9984C14.306 11.9984 15.418 12.8333 15.83 13.9981H17C17.2652 13.9981 17.5196 14.1034 17.7071 14.2909C17.8946 14.4785 18 14.7328 18 14.998C18 15.2631 17.8946 15.5175 17.7071 15.705C17.5196 15.8925 17.2652 15.9978 17 15.9978H15.83C15.6234 16.5833 15.2403 17.0902 14.7334 17.4488C14.2265 17.8074 13.6209 18 13 18C12.3791 18 11.7735 17.8074 11.2666 17.4488C10.7597 17.0902 10.3766 16.5833 10.17 15.9978H1C0.734784 15.9978 0.48043 15.8925 0.292893 15.705C0.105357 15.5175 0 15.2631 0 14.998C0 14.7328 0.105357 14.4785 0.292893 14.2909C0.48043 14.1034 0.734784 13.9981 1 13.9981H10.17C10.3769 13.413 10.7602 12.9065 11.267 12.5483C11.7739 12.1902 12.3793 11.998 13 11.9984ZM5 5.99918C5.58899 5.9991 6.16497 6.17238 6.65613 6.49741C7.14729 6.82243 7.5319 7.28482 7.762 7.82693L7.829 7.99891H17C17.2549 7.99919 17.5 8.09678 17.6854 8.27172C17.8707 8.44667 17.9822 8.68577 17.9972 8.94018C18.0121 9.19458 17.9293 9.44509 17.7657 9.64052C17.6021 9.83595 17.3701 9.96154 17.117 9.99164L17 9.99864H7.83C7.6284 10.5688 7.25917 11.0648 6.77073 11.4216C6.28229 11.7783 5.69744 11.9791 5.09285 11.9977C4.48827 12.0163 3.89217 11.8518 3.38273 11.5258C2.87328 11.1997 2.47427 10.7274 2.238 10.1706L2.17 9.99864H1C0.74512 9.99836 0.499968 9.90077 0.314632 9.72583C0.129296 9.55088 0.017765 9.31178 0.00282788 9.05737C-0.0121092 8.80297 0.0706746 8.55246 0.234265 8.35703C0.397855 8.1616 0.629904 8.03601 0.883 8.00591L1 7.99891H2.17C2.37688 7.41383 2.76016 6.90732 3.26702 6.54917C3.77387 6.19101 4.37935 5.99886 5 5.99918ZM13 4.12417e-07C14.306 4.12417e-07 15.418 0.834887 15.83 1.99973H17C17.2652 1.99973 17.5196 2.10507 17.7071 2.29258C17.8946 2.48009 18 2.73441 18 2.99959C18 3.26477 17.8946 3.51909 17.7071 3.7066C17.5196 3.89411 17.2652 3.99946 17 3.99946H15.83C15.6234 4.58491 15.2403 5.09187 14.7334 5.45047C14.2265 5.80906 13.6209 6.00163 13 6.00163C12.3791 6.00163 11.7735 5.80906 11.2666 5.45047C10.7597 5.09187 10.3766 4.58491 10.17 3.99946H1C0.734784 3.99946 0.48043 3.89411 0.292893 3.7066C0.105357 3.51909 0 3.26477 0 2.99959C0 2.73441 0.105357 2.48009 0.292893 2.29258C0.48043 2.10507 0.734784 1.99973 1 1.99973H10.17C10.3769 1.41465 10.7602 0.908134 11.267 0.549982C11.7739 0.191829 12.3793 -0.000324916 13 4.12417e-07Z" fill="#F6F7FA" />
                </svg>