<svg width="22" height="26" viewBox="0 0 22 26" fill="none" xmlns="http://www.w3.org/2000/svg">
<g filter="url(#filter0_d_56_3143)">
<path fill-rule="evenodd" clip-rule="evenodd" d="M1.28571 0C0.944722 0 0.617695 0.135459 0.376577 0.376577C0.135459 0.617695 0 0.944722 0 1.28571L0 9C0 9.34099 0.135459 9.66802 0.376577 9.90914C0.617695 10.1503 0.944722 10.2857 1.28571 10.2857H6.42857C6.76956 10.2857 7.09659 10.1503 7.33771 9.90914C7.57883 9.66802 7.71429 9.34099 7.71429 9V1.28571C7.71429 0.944722 7.57883 0.617695 7.33771 0.376577C7.09659 0.135459 6.76956 0 6.42857 0L1.28571 0ZM10.2857 1.28571C10.2857 0.944722 10.4212 0.617695 10.6623 0.376577C10.9034 0.135459 11.2304 0 11.5714 0L16.7143 0C17.0553 0 17.3823 0.135459 17.6234 0.376577C17.8645 0.617695 18 0.944722 18 1.28571V3.87C18 4.21099 17.8645 4.53802 17.6234 4.77914C17.3823 5.02026 17.0553 5.15571 16.7143 5.15571H11.5714C11.2304 5.15571 10.9034 5.02026 10.6623 4.77914C10.4212 4.53802 10.2857 4.21099 10.2857 3.87V1.28571ZM10.2857 9C10.2857 8.65901 10.4212 8.33198 10.6623 8.09086C10.9034 7.84974 11.2304 7.71429 11.5714 7.71429H16.7143C17.0553 7.71429 17.3823 7.84974 17.6234 8.09086C17.8645 8.33198 18 8.65901 18 9V16.7143C18 17.0553 17.8645 17.3823 17.6234 17.6234C17.3823 17.8645 17.0553 18 16.7143 18H11.5714C11.2304 18 10.9034 17.8645 10.6623 17.6234C10.4212 17.3823 10.2857 17.0553 10.2857 16.7143V9ZM0 14.13C0 13.789 0.135459 13.462 0.376577 13.2209C0.617695 12.9797 0.944722 12.8443 1.28571 12.8443H6.42857C6.76956 12.8443 7.09659 12.9797 7.33771 13.2209C7.57883 13.462 7.71429 13.789 7.71429 14.13V16.7143C7.71429 17.0553 7.57883 17.3823 7.33771 17.6234C7.09659 17.8645 6.76956 18 6.42857 18H1.28571C0.944722 18 0.617695 17.8645 0.376577 17.6234C0.135459 17.3823 0 17.0553 0 16.7143V14.13Z" fill="white"/>
</g>
<defs>
<filter id="filter0_d_56_3143" x="-4" y="0" width="26" height="26" filterUnits="userSpaceOnUse" color-interpolation-filters="sRGB">
<feFlood flood-opacity="0" result="BackgroundImageFix"/>
<feColorMatrix in="SourceAlpha" type="matrix" values="0 0 0 0 0 0 0 0 0 0 0 0 0 0 0 0 0 0 127 0" result="hardAlpha"/>
<feOffset dy="4"/>
<feGaussianBlur stdDeviation="2"/>
<feComposite in2="hardAlpha" operator="out"/>
<feColorMatrix type="matrix" values="0 0 0 0 0 0 0 0 0 0 0 0 0 0 0 0 0 0 0.25 0"/>
<feBlend mode="normal" in2="BackgroundImageFix" result="effect1_dropShadow_56_3143"/>
<feBlend mode="normal" in="SourceGraphic" in2="effect1_dropShadow_56_3143" result="shape"/>
</filter>
</defs>
</svg>
