  <svg width="18" height="18" viewBox="0 0 18 18" fill="none" xmlns="http://www.w3.org/2000/svg">
                    <path d="M15.1286 15.7286L15.7286 15.1286L14.1429 13.5429V11.1429H13.2857V13.8857L15.1286 15.7286ZM6.85714 3.42857H10.2857V1.71429H6.85714V3.42857ZM13.7143 18C12.5286 18 11.518 17.582 10.6826 16.746C9.84714 15.91 9.42914 14.8994 9.42857 13.7143C9.428 12.5291 9.846 11.5186 10.6826 10.6826C11.5191 9.84657 12.5297 9.42857 13.7143 9.42857C14.8989 9.42857 15.9097 9.84657 16.7469 10.6826C17.584 11.5186 18.0017 12.5291 18 13.7143C17.9983 14.8994 17.5803 15.9103 16.746 16.7469C15.9117 17.5834 14.9011 18.0011 13.7143 18ZM1.71429 16.2857C1.24286 16.2857 0.839428 16.118 0.504 15.7826C0.168571 15.4471 0.000571428 15.0434 0 14.5714V5.14286C0 4.67143 0.168 4.268 0.504 3.93257C0.84 3.59714 1.24343 3.42914 1.71429 3.42857H5.14286V1.71429C5.14286 1.24286 5.31086 0.839429 5.64686 0.504C5.98286 0.168571 6.38628 0.000571429 6.85714 0H10.2857C10.7571 0 11.1609 0.168 11.4969 0.504C11.8329 0.84 12.0006 1.24343 12 1.71429V3.42857H15.4286C15.9 3.42857 16.3037 3.59657 16.6397 3.93257C16.9757 4.26857 17.1434 4.672 17.1429 5.14286V8.80714C16.6429 8.45 16.1 8.17857 15.5143 7.99286C14.9286 7.80714 14.3286 7.71429 13.7143 7.71429C12.0571 7.71429 10.6429 8.3 9.47143 9.47143C8.3 10.6429 7.71428 12.0571 7.71428 13.7143C7.71428 14.1571 7.76086 14.5966 7.854 15.0326C7.94714 15.4686 8.09343 15.8863 8.29286 16.2857H1.71429Z" fill="#F6F7FA" />
                </svg>