<svg width="19" height="18" viewBox="0 0 19 18" fill="none" xmlns="http://www.w3.org/2000/svg">
<path d="M2.06387 15.8384L2.06388 15.8384L7.46387 17.4095C7.79422 17.5056 8.14353 17.5255 8.48358 17.4675C8.8236 17.4096 9.14388 17.2754 9.41901 17.0769L9.71155 17.4824L9.41901 17.0769C9.69409 16.8785 9.91611 16.6215 10.0686 16.3273C10.2209 16.0332 10.2999 15.7096 10.3 15.382L2.06387 15.8384ZM2.06387 15.8384C1.60805 15.7058 1.21127 15.4351 0.930625 15.0693M2.06387 15.8384L0.930625 15.0693M2.06388 2.16157L2.06387 2.16157C1.60805 2.29418 1.21127 2.56494 0.930625 2.93067C0.650205 3.29611 0.500095 3.73741 0.5 4.18906L2.06388 2.16157ZM2.06388 2.16157L7.46387 0.590514C7.46387 0.590513 7.46387 0.590513 7.46388 0.590512M2.06388 2.16157L7.46388 0.590512M7.46388 0.590512C7.79423 0.494407 8.14354 0.474464 8.48358 0.532457M7.46388 0.590512L8.48358 0.532457M8.48358 0.532457C8.8236 0.590446 9.14388 0.724561 9.41901 0.923057M8.48358 0.532457L9.41901 0.923057M9.41901 0.923057C9.69409 1.12151 9.91611 1.37854 10.0686 1.67272M9.41901 0.923057L10.0686 1.67272M10.0686 1.67272C10.2209 1.96679 10.2999 2.29045 10.3 2.618M10.0686 1.67272L10.3 2.618M10.3 2.618C10.3 2.61803 10.3 2.61806 10.3 2.61809M10.3 2.618V2.61809M10.3 2.61809V15.3819V2.61809ZM0.930625 15.0693C0.650205 14.7039 0.500095 14.2626 0.5 13.8109M0.930625 15.0693L0.5 13.8109M0.5 13.8109C0.5 13.8109 0.5 13.8109 0.5 13.8108M0.5 13.8109V13.8108M0.5 13.8108V4.18915V13.8108ZM12.3117 1.75927L11.9636 1.40034L12.3117 1.75927C12.3856 1.68759 12.489 1.6447 12.6 1.6447H15.3C15.8883 1.6447 16.4496 1.8715 16.8611 2.27055C17.2721 2.6691 17.5 3.20632 17.5 3.76313V4.63594C17.5 4.72979 17.4617 4.823 17.3883 4.89418C17.3144 4.96587 17.2109 5.00876 17.1 5.00876C16.989 5.00876 16.8856 4.96587 16.8117 4.89418C16.7383 4.823 16.7 4.72978 16.7 4.63594V3.76313C16.7 3.39401 16.5487 3.04322 16.2845 2.78703C16.0208 2.53135 15.6664 2.39032 15.3 2.39032H12.6C12.489 2.39032 12.3856 2.34743 12.3117 2.27575C12.2383 2.20457 12.2 2.11135 12.2 2.01751C12.2 1.92367 12.2383 1.83045 12.3117 1.75927ZM1.92653 16.3105L1.9242 16.3185L1.92653 16.3105ZM17.1 12.9912C17.211 12.9912 17.3144 13.0341 17.3883 13.1058C17.4617 13.177 17.5 13.2702 17.5 13.3641V14.2369C17.5 14.7937 17.2721 15.3309 16.8611 15.7294C16.4496 16.1285 15.8883 16.3553 15.3 16.3553H12.6C12.489 16.3553 12.3856 16.3124 12.3117 16.2407C12.2383 16.1695 12.2 16.0763 12.2 15.9825C12.2 15.8886 12.2383 15.7954 12.3117 15.7243C12.3856 15.6526 12.489 15.6097 12.6 15.6097H15.3C15.6664 15.6097 16.0208 15.4687 16.2845 15.213C16.5487 14.9568 16.7 14.606 16.7 14.2369V13.3641C16.7 13.2702 16.7383 13.177 16.8117 13.1058C16.8856 13.0341 16.989 12.9912 17.1 12.9912ZM6.3 7.62719C5.93356 7.62719 5.57916 7.76822 5.31551 8.0239C5.05135 8.28008 4.9 8.63087 4.9 9C4.9 9.36913 5.05135 9.71992 5.31551 9.9761C5.57916 10.2318 5.93356 10.3728 6.3 10.3728H6.3009C6.66734 10.3728 7.02174 10.2318 7.28539 9.9761C7.54955 9.71992 7.7009 9.36913 7.7009 9C7.7009 8.63087 7.54955 8.28008 7.28539 8.0239C7.02174 7.76822 6.66734 7.62719 6.3009 7.62719H6.3Z" fill="#DB4831" stroke="#DB4831"/>
<path d="M12.5996 9.00002H17.0996H12.5996ZM17.0996 9.00002L15.2996 7.25439L17.0996 9.00002ZM17.0996 9.00002L15.2996 10.7456L17.0996 9.00002Z" fill="#DB4831"/>
<path d="M12.5996 9.00002H17.0996M17.0996 9.00002L15.2996 7.25439M17.0996 9.00002L15.2996 10.7456" stroke="#DB4831" stroke-width="2" stroke-linecap="round" stroke-linejoin="round"/>
</svg>
