<svg width="35" height="34" viewBox="0 0 35 34" fill="none" xmlns="http://www.w3.org/2000/svg">
<rect x="1.16699" y="0.5" width="33.0034" height="33" rx="16.5" fill="#DB4831" fill-opacity="0.3"/>
<rect x="1.16699" y="0.5" width="33.0034" height="33" rx="16.5" stroke="#DB4831"/>
<path d="M26.6689 23L20.0922 15.8756C20.0175 15.7921 19.9406 15.7108 19.8616 15.632C19.449 15.2383 18.9149 15.0207 18.3614 15.0207C17.8078 15.0207 17.2737 15.2383 16.8612 15.632C16.8083 15.6824 16.7487 15.7472 16.6306 15.8756C16.5124 16.0028 16.4528 16.0676 16.3999 16.118C15.9874 16.5117 15.4533 16.7293 14.8998 16.7293C14.3462 16.7293 13.8121 16.5117 13.3996 16.118C13.3205 16.0392 13.2436 15.9579 13.1689 15.8744L8.66895 11M26.6689 23V15.8M26.6689 23H19.9189" stroke="#F6F7FA" stroke-width="2" stroke-linecap="round" stroke-linejoin="round"/>
</svg>
