<svg width="47" height="28" viewBox="0 0 47 28" fill="none" xmlns="http://www.w3.org/2000/svg">
<g filter="url(#filter0_d_380_9854)">
<rect x="8.5" y="3" width="38" height="17" rx="8.5" fill="#1B985E" shape-rendering="crispEdges"/>
<path d="M24.0576 10.8037V11.0918C24.0576 11.6354 23.9811 12.1237 23.8281 12.5566C23.6784 12.9863 23.4652 13.3542 23.1885 13.6602C22.9118 13.9629 22.5846 14.1956 22.207 14.3584C21.8294 14.5179 21.4128 14.5977 20.957 14.5977C20.498 14.5977 20.0781 14.5179 19.6973 14.3584C19.3197 14.1956 18.9909 13.9629 18.7109 13.6602C18.4342 13.3542 18.2194 12.9863 18.0664 12.5566C17.9167 12.1237 17.8418 11.6354 17.8418 11.0918V10.8037C17.8418 10.2601 17.9167 9.77181 18.0664 9.33887C18.2194 8.90592 18.4326 8.53809 18.7061 8.23535C18.9827 7.92936 19.3099 7.69661 19.6875 7.53711C20.0684 7.37435 20.4883 7.29297 20.9473 7.29297C21.403 7.29297 21.8197 7.37435 22.1973 7.53711C22.5781 7.69661 22.9069 7.92936 23.1836 8.23535C23.4603 8.53809 23.6751 8.90592 23.8281 9.33887C23.9811 9.77181 24.0576 10.2601 24.0576 10.8037ZM22.3193 11.0918V10.7939C22.3193 10.4424 22.2884 10.1331 22.2266 9.86621C22.168 9.59603 22.0801 9.36979 21.9629 9.1875C21.8457 9.00521 21.7008 8.86849 21.5283 8.77734C21.359 8.68294 21.1654 8.63574 20.9473 8.63574C20.7194 8.63574 20.5208 8.68294 20.3516 8.77734C20.1823 8.86849 20.0407 9.00521 19.9268 9.1875C19.8128 9.36979 19.7266 9.59603 19.668 9.86621C19.6126 10.1331 19.585 10.4424 19.585 10.7939V11.0918C19.585 11.4401 19.6126 11.7493 19.668 12.0195C19.7266 12.2865 19.8128 12.5127 19.9268 12.6982C20.0439 12.8838 20.1872 13.0238 20.3564 13.1182C20.529 13.2126 20.7292 13.2598 20.957 13.2598C21.1751 13.2598 21.3688 13.2126 21.5381 13.1182C21.7074 13.0238 21.849 12.8838 21.9629 12.6982C22.0801 12.5127 22.168 12.2865 22.2266 12.0195C22.2884 11.7493 22.3193 11.4401 22.3193 11.0918ZM27.9688 7.39062V14.5H26.2549V7.39062H27.9688ZM30.1074 7.39062V8.71387H24.165V7.39062H30.1074ZM34.7412 12.0928H36.4502C36.4274 12.5876 36.2939 13.0238 36.0498 13.4014C35.8057 13.779 35.4671 14.0736 35.0342 14.2852C34.6045 14.4935 34.0967 14.5977 33.5107 14.5977C33.0355 14.5977 32.6107 14.5179 32.2363 14.3584C31.8652 14.1989 31.5495 13.9694 31.2891 13.6699C31.0319 13.3704 30.835 13.0075 30.6982 12.5811C30.5648 12.1546 30.498 11.6745 30.498 11.1406V10.7549C30.498 10.221 30.568 9.74089 30.708 9.31445C30.8512 8.88477 31.0531 8.52018 31.3135 8.2207C31.5771 7.91797 31.8929 7.68685 32.2607 7.52734C32.6286 7.36784 33.0371 7.28809 33.4863 7.28809C34.1048 7.28809 34.6273 7.39876 35.0537 7.62012C35.4801 7.84147 35.8105 8.14583 36.0449 8.5332C36.2793 8.91732 36.4176 9.35514 36.46 9.84668H34.751C34.7445 9.57975 34.6989 9.35677 34.6143 9.17773C34.5296 8.99544 34.3962 8.85872 34.2139 8.76758C34.0316 8.67643 33.7891 8.63086 33.4863 8.63086C33.2747 8.63086 33.0908 8.66992 32.9346 8.74805C32.7783 8.82617 32.6481 8.94987 32.5439 9.11914C32.4398 9.28841 32.3617 9.50814 32.3096 9.77832C32.2607 10.0452 32.2363 10.3675 32.2363 10.7451V11.1406C32.2363 11.5182 32.2591 11.8405 32.3047 12.1074C32.3503 12.3743 32.4235 12.5924 32.5244 12.7617C32.6253 12.931 32.7555 13.0563 32.915 13.1377C33.0778 13.2158 33.2764 13.2549 33.5107 13.2549C33.7712 13.2549 33.9909 13.2142 34.1699 13.1328C34.349 13.0482 34.4873 12.9212 34.585 12.752C34.6826 12.5794 34.7347 12.3597 34.7412 12.0928Z" fill="#F6F7FA"/>
</g>
<defs>
<filter id="filter0_d_380_9854" x="0.5" y="-5" width="54" height="33" filterUnits="userSpaceOnUse" color-interpolation-filters="sRGB">
<feFlood flood-opacity="0" result="BackgroundImageFix"/>
<feColorMatrix in="SourceAlpha" type="matrix" values="0 0 0 0 0 0 0 0 0 0 0 0 0 0 0 0 0 0 127 0" result="hardAlpha"/>
<feOffset/>
<feGaussianBlur stdDeviation="4"/>
<feComposite in2="hardAlpha" operator="out"/>
<feColorMatrix type="matrix" values="0 0 0 0 0.184314 0 0 0 0 0.996078 0 0 0 0 0.509804 0 0 0 0.2 0"/>
<feBlend mode="normal" in2="BackgroundImageFix" result="effect1_dropShadow_380_9854"/>
<feBlend mode="normal" in="SourceGraphic" in2="effect1_dropShadow_380_9854" result="shape"/>
</filter>
</defs>
</svg>
