<svg width="19" height="20" viewBox="0 0 19 20" fill="none" xmlns="http://www.w3.org/2000/svg">
    <path
        d="M18.9473 6.50908C19.0733 6.84899 18.967 7.22797 18.6954 7.47021L16.9905 9.00957C17.0338 9.33385 17.0575 9.66595 17.0575 10.002C17.0575 10.338 17.0338 10.6701 16.9905 10.9943L18.6954 12.5337C18.967 12.7759 19.0733 13.1549 18.9473 13.4948C18.7741 13.9598 18.5654 14.4052 18.3253 14.8349L18.1402 15.1514C17.8803 15.5812 17.589 15.9875 17.2701 16.3704C17.0378 16.6517 16.6519 16.7455 16.3055 16.6361L14.1124 15.9445C13.5849 16.3469 13.0021 16.6829 12.3801 16.9369L11.8879 19.1678C11.8092 19.5233 11.5336 19.8046 11.1713 19.8633C10.628 19.9531 10.0689 20 9.49803 20C8.92714 20 8.36805 19.9531 7.82472 19.8633C7.4625 19.8046 7.18689 19.5233 7.10815 19.1678L6.616 16.9369C5.99392 16.6829 5.41121 16.3469 4.88362 15.9445L2.69454 16.64C2.34806 16.7494 1.96222 16.6517 1.72992 16.3743C1.41101 15.9914 1.11965 15.5851 0.859798 15.1553L0.674749 14.8388C0.434579 14.4091 0.225907 13.9637 0.0526703 13.4987C-0.0733204 13.1588 0.0329842 12.7798 0.304652 12.5376L2.00946 10.9982C1.96615 10.6701 1.94253 10.338 1.94253 10.002C1.94253 9.66595 1.96615 9.33385 2.00946 9.00957L0.304652 7.47021C0.0329842 7.22797 -0.0733204 6.84899 0.0526703 6.50908C0.225907 6.04415 0.434579 5.59875 0.674749 5.16898L0.859798 4.85251C1.11965 4.42274 1.41101 4.01641 1.72992 3.63352C1.96222 3.35222 2.34806 3.25845 2.69454 3.36785L4.88756 4.05939C5.41515 3.65696 5.99785 3.32096 6.61993 3.06701L7.11208 0.836101C7.19083 0.480563 7.46643 0.199258 7.82866 0.140652C8.37199 0.0468842 8.93107 0 9.50197 0C10.0729 0 10.6319 0.0468842 11.1753 0.136745C11.5375 0.195351 11.8131 0.476656 11.8919 0.832194L12.384 3.0631C13.0061 3.31705 13.5888 3.65306 14.1164 4.05548L16.3094 3.36394C16.6559 3.25454 17.0417 3.35222 17.274 3.62962C17.5929 4.0125 17.8843 4.41883 18.1441 4.8486L18.3292 5.16507C18.5694 5.59484 18.778 6.04024 18.9513 6.50518L18.9473 6.50908ZM9.50197 13.1276C10.3373 13.1276 11.1385 12.7983 11.7292 12.2121C12.3199 11.6259 12.6517 10.8309 12.6517 10.002C12.6517 9.17299 12.3199 8.37798 11.7292 7.79181C11.1385 7.20565 10.3373 6.87634 9.50197 6.87634C8.6666 6.87634 7.86544 7.20565 7.27475 7.79181C6.68405 8.37798 6.3522 9.17299 6.3522 10.002C6.3522 10.8309 6.68405 11.6259 7.27475 12.2121C7.86544 12.7983 8.6666 13.1276 9.50197 13.1276Z"
        fill="white" />
</svg>