<svg width="34" height="35" viewBox="0 0 34 35" fill="none" xmlns="http://www.w3.org/2000/svg">
<rect x="0.5" y="1" width="33.0034" height="33" rx="16.5" fill="#DB8C31" fill-opacity="0.3"/>
<rect x="0.5" y="1" width="33.0034" height="33" rx="16.5" stroke="#DB8C31"/>
<path d="M16.0029 17.501C16.0029 17.7662 16.1083 18.0205 16.2958 18.2081C16.4834 18.3956 16.7377 18.501 17.0029 18.501C17.2681 18.501 17.5225 18.3956 17.71 18.2081C17.8976 18.0205 18.0029 17.7662 18.0029 17.501C18.0029 17.2358 17.8976 16.9814 17.71 16.7939C17.5225 16.6063 17.2681 16.501 17.0029 16.501C16.7377 16.501 16.4834 16.6063 16.2958 16.7939C16.1083 16.9814 16.0029 17.2358 16.0029 17.501Z" stroke="#F6F7FA" stroke-width="2" stroke-linecap="round" stroke-linejoin="round"/>
<path d="M17.0029 12.501C16.014 12.501 15.0473 12.7942 14.2251 13.3436C13.4028 13.893 12.762 14.6739 12.3835 15.5876C12.0051 16.5012 11.9061 17.5065 12.099 18.4764C12.2919 19.4463 12.7681 20.3372 13.4674 21.0365C14.1667 21.7358 15.0576 22.212 16.0275 22.4049C16.9974 22.5978 18.0027 22.4988 18.9163 22.1204C19.83 21.7419 20.6109 21.1011 21.1603 20.2788C21.7097 19.4566 22.0029 18.4899 22.0029 17.501" stroke="#F6F7FA" stroke-width="2" stroke-linecap="round" stroke-linejoin="round"/>
<path d="M18.0034 8.55612C16.1495 8.34813 14.2767 8.7214 12.6442 9.62429C11.0117 10.5272 9.70009 11.9151 8.89084 13.596C8.0816 15.2769 7.8147 17.1677 8.12706 19.007C8.43943 20.8462 9.31562 22.5429 10.6344 23.8624C11.9533 25.1819 13.6495 26.0589 15.4886 26.3722C17.3277 26.6855 19.2186 26.4195 20.9 25.6111C22.5813 24.8027 23.9698 23.4918 24.8735 21.8598C25.7772 20.2277 26.1515 18.3552 25.9444 16.5011" stroke="#F6F7FA" stroke-width="2" stroke-linecap="round" stroke-linejoin="round"/>
<path d="M20.0029 14.501V11.501L23.0029 8.50098V11.501H26.0029L23.0029 14.501H20.0029ZM20.0029 14.501L17.0029 17.501" stroke="#F6F7FA" stroke-width="2" stroke-linecap="round" stroke-linejoin="round"/>
</svg>
