<svg width="34" height="34" viewBox="0 0 34 34" fill="none" xmlns="http://www.w3.org/2000/svg">
<rect x="0.5" y="0.5" width="33.0034" height="33" rx="16.5" fill="#2FFE82" fill-opacity="0.3"/>
<rect x="0.5" y="0.5" width="33.0034" height="33" rx="16.5" stroke="#2FFE82"/>
<path d="M16.0029 17.001C16.0029 17.2662 16.1083 17.5205 16.2958 17.7081C16.4834 17.8956 16.7377 18.001 17.0029 18.001C17.2681 18.001 17.5225 17.8956 17.71 17.7081C17.8976 17.5205 18.0029 17.2662 18.0029 17.001C18.0029 16.7358 17.8976 16.4814 17.71 16.2939C17.5225 16.1063 17.2681 16.001 17.0029 16.001C16.7377 16.001 16.4834 16.1063 16.2958 16.2939C16.1083 16.4814 16.0029 16.7358 16.0029 17.001Z" stroke="#F6F7FA" stroke-width="2" stroke-linecap="round" stroke-linejoin="round"/>
<path d="M17.0029 12.001C16.014 12.001 15.0473 12.2942 14.2251 12.8436C13.4028 13.393 12.762 14.1739 12.3835 15.0876C12.0051 16.0012 11.9061 17.0065 12.099 17.9764C12.2919 18.9463 12.7681 19.8372 13.4674 20.5365C14.1667 21.2358 15.0576 21.712 16.0275 21.9049C16.9974 22.0978 18.0027 21.9988 18.9163 21.6204C19.83 21.2419 20.6109 20.6011 21.1603 19.7788C21.7097 18.9566 22.0029 17.9899 22.0029 17.001" stroke="#F6F7FA" stroke-width="2" stroke-linecap="round" stroke-linejoin="round"/>
<path d="M18.0034 8.05612C16.1495 7.84813 14.2767 8.2214 12.6442 9.12429C11.0117 10.0272 9.70009 11.4151 8.89084 13.096C8.0816 14.7769 7.8147 16.6677 8.12706 18.507C8.43943 20.3462 9.31562 22.0429 10.6344 23.3624C11.9533 24.6819 13.6495 25.5589 15.4886 25.8722C17.3277 26.1855 19.2186 25.9195 20.9 25.1111C22.5813 24.3027 23.9698 22.9918 24.8735 21.3598C25.7772 19.7277 26.1515 17.8552 25.9444 16.0011" stroke="#F6F7FA" stroke-width="2" stroke-linecap="round" stroke-linejoin="round"/>
<path d="M20.0029 14.001V11.001L23.0029 8.00098V11.001H26.0029L23.0029 14.001H20.0029ZM20.0029 14.001L17.0029 17.001" stroke="#F6F7FA" stroke-width="2" stroke-linecap="round" stroke-linejoin="round"/>
</svg>
