   <svg width="18" height="18" viewBox="0 0 18 18" fill="none" xmlns="http://www.w3.org/2000/svg">
                    <path d="M9 3.5984C10.0932 3.5984 11.1618 3.91496 12.0707 4.50806C12.9796 5.10116 13.6881 5.94415 14.1064 6.93043C14.5247 7.91671 14.6342 9.00199 14.4209 10.049C14.2077 11.0961 13.6812 12.0578 12.9083 12.8127C12.1353 13.5675 11.1504 14.0816 10.0783 14.2899C9.00613 14.4982 7.89481 14.3913 6.88486 13.9827C5.87491 13.5742 5.01169 12.8824 4.40436 11.9947C3.79704 11.1071 3.47288 10.0635 3.47288 8.996L3.47656 8.79359C3.53019 7.39805 4.13559 6.07713 5.16558 5.10835C6.19557 4.13957 7.56997 3.59835 9 3.5984ZM9 7.1968C8.53519 7.19666 8.0875 7.36809 7.74668 7.67673C7.40586 7.98538 7.19709 8.40842 7.16223 8.86106L7.15763 8.996C7.15763 9.35185 7.26568 9.69971 7.46812 9.99558C7.67056 10.2915 7.9583 10.5221 8.29495 10.6582C8.6316 10.7944 9.00204 10.8301 9.35943 10.7606C9.71681 10.6912 10.0451 10.5198 10.3028 10.2682C10.5604 10.0166 10.7359 9.69602 10.807 9.34701C10.8781 8.998 10.8416 8.63624 10.7021 8.30748C10.5627 7.97872 10.3265 7.69772 10.0236 7.50002C9.72059 7.30232 9.36439 7.1968 9 7.1968ZM12.5926 15.3922C12.8183 15.3922 13.036 15.4731 13.2046 15.6195C13.3733 15.7659 13.481 15.9677 13.5074 16.1865L13.5138 16.3008C13.5136 16.53 13.4237 16.7506 13.2625 16.9173C13.1013 17.084 12.881 17.1844 12.6466 17.1978C12.4122 17.2112 12.1814 17.1368 12.0014 16.9896C11.8213 16.8424 11.7056 16.6337 11.6779 16.406L11.6714 16.2918C11.6714 16.0532 11.7685 15.8244 11.9413 15.6556C12.114 15.4869 12.3483 15.3922 12.5926 15.3922ZM15.4852 13.1432C15.7108 13.1432 15.9286 13.2241 16.0972 13.3705C16.2658 13.5169 16.3735 13.7187 16.3999 13.9375L16.4063 14.0518C16.4061 14.281 16.3162 14.5016 16.155 14.6683C15.9938 14.835 15.7735 14.9354 15.5391 14.9488C15.3048 14.9622 15.074 14.8878 14.8939 14.7406C14.7139 14.5934 14.5982 14.3847 14.5704 14.157L14.564 14.0428C14.564 13.8042 14.661 13.5754 14.8338 13.4066C15.0065 13.2379 15.2408 13.1432 15.4852 13.1432ZM17.0788 9.8956C17.3044 9.89563 17.5222 9.97652 17.6908 10.1229C17.8594 10.2694 17.9672 10.4711 17.9936 10.6899L18 10.8042C17.9997 11.0335 17.9098 11.254 17.7487 11.4208C17.5875 11.5875 17.3672 11.6878 17.1328 11.7013C16.8984 11.7147 16.6676 11.6402 16.4876 11.4931C16.3075 11.3459 16.1918 11.1371 16.1641 10.9094L16.1576 10.7952C16.1576 10.5566 16.2547 10.3278 16.4274 10.1591C16.6002 9.99038 16.8345 9.8956 17.0788 9.8956ZM17.0788 6.2972C17.3044 6.29723 17.5222 6.37812 17.6908 6.52454C17.8594 6.67096 17.9672 6.87272 17.9936 7.09155L18 7.2058C17.9997 7.43509 17.9098 7.65563 17.7487 7.82235C17.5875 7.98908 17.3672 8.08941 17.1328 8.10285C16.8984 8.11629 16.6676 8.04182 16.4876 7.89465C16.3075 7.74749 16.1918 7.53873 16.1641 7.31105L16.1576 7.1968C16.1576 6.95821 16.2547 6.72939 16.4274 6.56069C16.6002 6.39198 16.8345 6.2972 17.0788 6.2972ZM15.4852 3.04964C15.7295 3.04964 15.9638 3.14442 16.1365 3.31313C16.3093 3.48184 16.4063 3.71066 16.4063 3.94924C16.407 4.06738 16.3837 4.18448 16.338 4.29385C16.2923 4.40322 16.2249 4.50272 16.1398 4.58667C15.9679 4.75623 15.7341 4.85215 15.4898 4.85334C15.3688 4.85393 15.2489 4.83125 15.1369 4.78659C15.0249 4.74192 14.923 4.67615 14.837 4.59304C14.6634 4.42517 14.5652 4.19683 14.564 3.95824C14.564 3.45267 14.9767 3.04964 15.4852 3.04964ZM12.5926 0.800644C12.8369 0.800644 13.0713 0.895423 13.244 1.06413C13.4168 1.23284 13.5138 1.46166 13.5138 1.70024C13.5144 1.81838 13.4912 1.93548 13.4455 2.04485C13.3997 2.15422 13.3324 2.25372 13.2473 2.33767C13.1622 2.42163 13.0609 2.48839 12.9494 2.53414C12.8379 2.5799 12.7182 2.60375 12.5972 2.60434C12.4763 2.60493 12.3564 2.58225 12.2444 2.53759C12.1324 2.49292 12.0305 2.42715 11.9445 2.34404C11.8585 2.26092 11.7902 2.16208 11.7433 2.05316C11.6965 1.94424 11.672 1.82738 11.6714 1.70924C11.6714 1.20366 12.0841 0.800644 12.5926 0.800644ZM9 0C9.24431 0 9.47862 0.094779 9.65138 0.263487C9.82413 0.432194 9.92119 0.661011 9.92119 0.8996C9.92179 1.01774 9.89856 1.13483 9.85283 1.2442C9.80709 1.35357 9.73975 1.45308 9.65463 1.53703C9.56952 1.62098 9.46831 1.68774 9.35678 1.7335C9.24525 1.77925 9.12558 1.80311 9.00461 1.8037C8.88363 1.80429 8.76373 1.7816 8.65173 1.73694C8.53974 1.69228 8.43785 1.62651 8.35188 1.54339C8.26591 1.46027 8.19755 1.36143 8.1507 1.25252C8.10384 1.1436 8.07942 1.02673 8.07881 0.908596C8.07881 0.403021 8.4915 0 9 0ZM5.40737 0.800644C5.65168 0.800644 5.88599 0.895423 6.05875 1.06413C6.2315 1.23284 6.32856 1.46166 6.32856 1.70024C6.32916 1.81838 6.30593 1.93548 6.2602 2.04485C6.21446 2.15422 6.14712 2.25372 6.062 2.33767C5.97689 2.42163 5.87568 2.48839 5.76415 2.53414C5.65262 2.5799 5.53295 2.60375 5.41197 2.60434C5.291 2.60493 5.1711 2.58225 5.0591 2.53759C4.94711 2.49292 4.84522 2.42715 4.75925 2.34404C4.58563 2.17617 4.4874 1.94783 4.48618 1.70924C4.48618 1.20366 4.89887 0.800644 5.40737 0.800644ZM2.51484 3.04964C2.75916 3.04964 2.99346 3.14442 3.16622 3.31313C3.33897 3.48184 3.43603 3.71066 3.43603 3.94924C3.43663 4.06738 3.4134 4.18448 3.36767 4.29385C3.32193 4.40322 3.25459 4.50272 3.16948 4.58667C2.99758 4.75623 2.76376 4.85215 2.51945 4.85334C2.39848 4.85393 2.27857 4.83125 2.16657 4.78659C2.05458 4.74192 1.95269 4.67615 1.86672 4.59304C1.6931 4.42517 1.59488 4.19683 1.59365 3.95824C1.59365 3.45267 2.00635 3.04964 2.51484 3.04964ZM0.921187 6.2972C1.14682 6.29723 1.36459 6.37812 1.5332 6.52454C1.70181 6.67096 1.80953 6.87272 1.83593 7.09155L1.84237 7.2058C1.84211 7.43509 1.75221 7.65563 1.59103 7.82235C1.42985 7.98908 1.20956 8.08941 0.975174 8.10285C0.740785 8.11629 0.509988 8.04182 0.329939 7.89465C0.14989 7.74749 0.0341794 7.53873 0.00644828 7.31105L0 7.1968C0 6.95821 0.0970533 6.72939 0.269809 6.56069C0.442566 6.39198 0.676873 6.2972 0.921187 6.2972ZM0.921187 9.8956C1.14682 9.89563 1.36459 9.97652 1.5332 10.1229C1.70181 10.2694 1.80953 10.4711 1.83593 10.6899L1.84237 10.8042C1.84211 11.0335 1.75221 11.254 1.59103 11.4208C1.42985 11.5875 1.20956 11.6878 0.975174 11.7013C0.740785 11.7147 0.509988 11.6402 0.329939 11.4931C0.14989 11.3459 0.0341794 11.1371 0.00644828 10.9094L0 10.7952C0 10.5566 0.0970533 10.3278 0.269809 10.1591C0.442566 9.99038 0.676873 9.8956 0.921187 9.8956ZM2.51484 13.1432C2.74047 13.1432 2.95824 13.2241 3.12685 13.3705C3.29546 13.5169 3.40318 13.7187 3.42958 13.9375L3.43603 14.0518C3.43577 14.281 3.34586 14.5016 3.18468 14.6683C3.0235 14.835 2.80322 14.9354 2.56883 14.9488C2.33444 14.9622 2.10364 14.8878 1.92359 14.7406C1.74354 14.5934 1.62783 14.3847 1.6001 14.157L1.59365 14.0428C1.59365 13.8042 1.69071 13.5754 1.86346 13.4066C2.03622 13.2379 2.27053 13.1432 2.51484 13.1432ZM5.40737 15.3922C5.633 15.3922 5.85077 15.4731 6.01938 15.6195C6.18799 15.7659 6.29571 15.9677 6.32211 16.1865L6.32856 16.3008C6.3283 16.53 6.23839 16.7506 6.07721 16.9173C5.91603 17.084 5.69574 17.1844 5.46136 17.1978C5.22697 17.2112 4.99617 17.1368 4.81612 16.9896C4.63607 16.8424 4.52036 16.6337 4.49263 16.406L4.48618 16.2918C4.48618 16.0532 4.58324 15.8244 4.75599 15.6556C4.92875 15.4869 5.16306 15.3922 5.40737 15.3922ZM9 16.1928C9.22563 16.1928 9.4434 16.2737 9.61201 16.4201C9.78062 16.5666 9.88834 16.7683 9.91474 16.9871L9.92119 17.1014C9.92093 17.3307 9.83102 17.5512 9.66984 17.718C9.50866 17.8847 9.28837 17.985 9.05399 17.9985C8.8196 18.0119 8.5888 17.9374 8.40875 17.7903C8.2287 17.6431 8.11299 17.4343 8.08526 17.2066L8.07881 17.0924C8.07881 16.8538 8.17587 16.625 8.34862 16.4563C8.52138 16.2876 8.75569 16.1928 9 16.1928Z" fill="#F6F7FA" />
                </svg>