<svg width="30" height="30" viewBox="0 0 30 30" fill="none" xmlns="http://www.w3.org/2000/svg">
    <rect width="30" height="30" rx="15" fill="#DB4831" fill-opacity="0.3" />
    <path
        d="M8.00078 10.3336C8.00078 9.9656 8.2691 9.6664 8.60041 9.6664H10.6731C11.0845 9.6544 11.4477 9.364 11.5877 8.9336L11.611 8.8576L11.7005 8.56C11.7549 8.3776 11.8023 8.2184 11.8692 8.076C12.1321 7.5144 12.619 7.1248 13.1813 7.0248C13.3244 7 13.4745 7 13.6479 7H16.3529C16.5263 7 16.6772 7 16.8195 7.0248C17.3818 7.1248 17.8695 7.5144 18.1315 8.076C18.1984 8.2184 18.2459 8.3776 18.3003 8.56L18.3898 8.8576L18.4131 8.9336C18.5531 9.364 18.9886 9.6552 19.4008 9.6664H21.3996C21.7317 9.6664 22 9.9648 22 10.3336C22 10.7024 21.7317 11 21.4004 11H8.59963C8.26832 11 8.00078 10.7016 8.00078 10.3336ZM14.8892 23H15.5013C17.6066 23 18.6589 23 19.344 22.3096C20.0284 21.6184 20.0984 20.4856 20.2384 18.2208L20.4406 14.956C20.5169 13.7264 20.555 13.112 20.2112 12.7224C19.8675 12.3328 19.288 12.3328 18.1277 12.3328H12.2628C11.1032 12.3328 10.523 12.3328 10.1792 12.7224C9.83545 13.112 9.87434 13.7264 9.94978 14.956L10.152 18.22C10.292 20.4864 10.362 21.6184 11.0464 22.3096C11.7308 23.0008 12.7838 23 14.8892 23Z"
        fill="#DB4831" />
</svg>