<svg width="71" height="70" viewBox="0 0 71 70" fill="none" xmlns="http://www.w3.org/2000/svg">
<rect x="1" y="0.5" width="69" height="69" rx="34.5" fill="#2FFE82" fill-opacity="0.3"/>
<rect x="1" y="0.5" width="69" height="69" rx="34.5" stroke="#2FFE82"/>
<path d="M51.9799 51.3483C53.1687 51.1075 53.8794 49.8973 53.2872 48.863C51.9821 46.5871 49.9275 44.5854 47.3 43.0612C43.9144 41.0972 39.7643 40.0315 35.5 40.0315C31.2357 40.0315 27.0856 41.0951 23.7 43.0612C21.0725 44.5854 19.0179 46.5871 17.7128 48.863C17.1206 49.8973 17.8313 51.1075 19.0201 51.3483C29.8892 53.5507 41.1086 53.5507 51.9777 51.3483" fill="#F6F7FA"/>
<path d="M35.4998 37.9376C41.447 37.9376 46.2682 33.2506 46.2682 27.4688C46.2682 21.687 41.447 17 35.4998 17C29.5526 17 24.7314 21.687 24.7314 27.4688C24.7314 33.2506 29.5526 37.9376 35.4998 37.9376Z" fill="#F6F7FA"/>
</svg>
