<svg width="35" height="34" viewBox="0 0 35 34" fill="none" xmlns="http://www.w3.org/2000/svg">
<rect x="0.833008" y="0.5" width="33.0034" height="33" rx="16.5" fill="#2FFE82" fill-opacity="0.3"/>
<rect x="0.833008" y="0.5" width="33.0034" height="33" rx="16.5" stroke="#2FFE82"/>
<path d="M26.335 11L19.7582 18.1244C19.6835 18.2079 19.6066 18.2892 19.5276 18.368C19.115 18.7617 18.5809 18.9793 18.0274 18.9793C17.4739 18.9793 16.9398 18.7617 16.5272 18.368C16.4743 18.3176 16.4147 18.2528 16.2966 18.1244C16.1785 17.9972 16.1188 17.9324 16.066 17.882C15.6534 17.4883 15.1193 17.2707 14.5658 17.2707C14.0122 17.2707 13.4781 17.4883 13.0656 17.882C12.9865 17.9608 12.9096 18.0421 12.835 18.1256L8.33496 23M26.335 11V18.2M26.335 11H19.585" stroke="#F6F7FA" stroke-width="2" stroke-linecap="round" stroke-linejoin="round"/>
</svg>
