<svg width="68" height="16" viewBox="0 0 68 16" fill="none" xmlns="http://www.w3.org/2000/svg">
<path d="M7.16047 0.504302C7.24605 0.350858 7.36863 0.223542 7.51599 0.135054C7.66334 0.0465665 7.83033 0 8.00029 0C8.17025 0 8.33724 0.0465665 8.4846 0.135054C8.63196 0.223542 8.75454 0.350858 8.84011 0.504302L11.0135 4.40295L15.2344 5.35852C15.4004 5.39622 15.5541 5.47874 15.6801 5.59784C15.8061 5.71695 15.9 5.86849 15.9525 6.03735C16.005 6.20621 16.0142 6.38649 15.9792 6.56023C15.9442 6.73396 15.8662 6.89508 15.7531 7.02751L12.8759 10.3923L13.3114 14.8817C13.3285 15.0585 13.301 15.2369 13.2316 15.3991C13.1622 15.5613 13.0532 15.7016 12.9157 15.806C12.7781 15.9105 12.6167 15.9754 12.4476 15.9942C12.2786 16.0131 12.1077 15.9853 11.9521 15.9136L8.00029 14.0935L4.04848 15.9136C3.8929 15.9853 3.72203 16.0131 3.55295 15.9942C3.38387 15.9754 3.22249 15.9105 3.08492 15.806C2.94735 15.7016 2.83841 15.5613 2.76898 15.3991C2.69954 15.2369 2.67204 15.0585 2.68922 14.8817L3.12468 10.3923L0.247525 7.02832C0.134171 6.8959 0.0560428 6.73472 0.0209402 6.56088C-0.0141624 6.38703 -0.00501128 6.20661 0.0474799 6.03762C0.0999711 5.86863 0.193966 5.71698 0.320081 5.59782C0.446195 5.47865 0.600017 5.39614 0.76619 5.35852L4.98705 4.40295L7.16047 0.504302Z" fill="#2FFE82"/>
<path d="M36.5768 4.64642L36.6855 4.84134L36.9031 4.89061L41.1237 5.84611C41.1237 5.84611 41.1237 5.84611 41.1237 5.84611C41.2007 5.86361 41.2744 5.90241 41.3366 5.96119C41.3989 6.02012 41.4475 6.09713 41.475 6.18573L41.9525 6.03735L41.475 6.18573C41.5026 6.2744 41.5075 6.36971 41.489 6.46151C41.4705 6.55326 41.4297 6.6362 41.3729 6.70271L38.4959 10.0674L38.3577 10.229L38.3782 10.4406L38.8137 14.93L38.8137 14.9301C38.8228 15.0238 38.8081 15.1178 38.772 15.2023C38.7358 15.2866 38.6803 15.3569 38.6133 15.4078C38.5465 15.4585 38.4701 15.4886 38.3921 15.4973C38.3142 15.506 38.2348 15.4934 38.1614 15.4595L38.1613 15.4595L34.2095 13.6394L34.0003 13.543L33.7911 13.6394L29.8393 15.4595L29.8392 15.4595C29.7657 15.4934 29.6864 15.506 29.6085 15.4973C29.5305 15.4886 29.4541 15.4585 29.3873 15.4078L29.0849 15.806L29.3873 15.4078C29.3202 15.3569 29.2647 15.2866 29.2286 15.2023C29.1925 15.1178 29.1778 15.0238 29.1869 14.9301L29.1869 14.93L29.6223 10.4406L29.6429 10.2289L29.5047 10.0673L26.6275 6.70334L26.6274 6.70318C26.5705 6.63669 26.5296 6.55372 26.511 6.46191C26.4925 6.37006 26.4974 6.27467 26.525 6.18593C26.5525 6.09727 26.6011 6.0202 26.6635 5.96124C26.7257 5.90243 26.7995 5.86363 26.8766 5.84618L31.0975 4.89061L31.3151 4.84134L31.4238 4.64642L33.5972 0.747832C33.6412 0.668932 33.7027 0.606182 33.7734 0.563708L33.5179 0.138312L33.7734 0.563708C33.8439 0.521346 33.9221 0.5 34.0003 0.5C34.0785 0.5 34.1566 0.521346 34.2272 0.563708C34.2979 0.60617 34.3594 0.668896 34.4034 0.747765C34.4034 0.747787 34.4034 0.747809 34.4034 0.747831L36.5768 4.64642Z" stroke="#2FFE82" stroke-opacity="0.3"/>
<path d="M62.5768 4.64642L62.6855 4.84134L62.9031 4.89061L67.1237 5.84611C67.1237 5.84611 67.1237 5.84611 67.1237 5.84611C67.2007 5.86361 67.2744 5.90241 67.3366 5.96119C67.3989 6.02012 67.4475 6.09713 67.475 6.18573L67.9525 6.03735L67.475 6.18573C67.5026 6.2744 67.5075 6.36971 67.489 6.46151C67.4705 6.55326 67.4297 6.6362 67.3729 6.70271L64.4959 10.0674L64.3577 10.229L64.3782 10.4406L64.8137 14.93L64.8137 14.9301C64.8228 15.0238 64.8081 15.1178 64.772 15.2023C64.7358 15.2866 64.6803 15.3569 64.6133 15.4078C64.5465 15.4585 64.4701 15.4886 64.3921 15.4973C64.3142 15.506 64.2348 15.4934 64.1614 15.4595L64.1613 15.4595L60.2095 13.6394L60.0003 13.543L59.7911 13.6394L55.8393 15.4595L55.8392 15.4595C55.7657 15.4934 55.6864 15.506 55.6085 15.4973C55.5305 15.4886 55.4541 15.4585 55.3873 15.4078L55.0849 15.806L55.3873 15.4078C55.3202 15.3569 55.2647 15.2866 55.2286 15.2023C55.1925 15.1178 55.1778 15.0238 55.1869 14.9301L55.1869 14.93L55.6223 10.4406L55.6429 10.2289L55.5047 10.0673L52.6275 6.70334L52.6274 6.70318C52.5705 6.63669 52.5296 6.55372 52.511 6.46191C52.4925 6.37006 52.4974 6.27467 52.525 6.18593C52.5525 6.09727 52.6011 6.0202 52.6635 5.96124C52.7257 5.90243 52.7995 5.86363 52.8766 5.84618L57.0975 4.89061L57.3151 4.84134L57.4238 4.64642L59.5972 0.747832C59.6412 0.668932 59.7027 0.606182 59.7734 0.563708L59.5179 0.138312L59.7734 0.563708C59.8439 0.521346 59.9221 0.5 60.0003 0.5C60.0785 0.5 60.1566 0.521346 60.2272 0.563708C60.2979 0.60617 60.3594 0.668896 60.4034 0.747765C60.4034 0.747787 60.4034 0.747809 60.4034 0.747831L62.5768 4.64642Z" stroke="#2FFE82" stroke-opacity="0.3"/>
</svg>
