<svg width="70" height="30" viewBox="0 0 70 30" fill="none" xmlns="http://www.w3.org/2000/svg">
    <rect width="70" height="30" rx="15" fill="#2FFE82" fill-opacity="0.07" />
    <path
        d="M15.1111 7.88889C15.1111 7.88889 15.1111 7 16 7C16.8889 7 16.8889 7.88889 16.8889 7.88889V8.77778C16.8889 8.77778 16.8889 9.66667 16 9.66667C15.1111 9.66667 15.1111 8.77778 15.1111 8.77778V7.88889ZM23.1111 14.1111C23.1111 14.1111 24 14.1111 24 15C24 15.8889 23.1111 15.8889 23.1111 15.8889H22.2222C22.2222 15.8889 21.3333 15.8889 21.3333 15C21.3333 14.1111 22.2222 14.1111 22.2222 14.1111H23.1111ZM9.77778 14.1111C9.77778 14.1111 10.6667 14.1111 10.6667 15C10.6667 15.8889 9.77778 15.8889 9.77778 15.8889H8.88889C8.88889 15.8889 8 15.8889 8 15C8 14.1111 8.88889 14.1111 8.88889 14.1111H9.77778ZM12.0538 10.2413C12.0538 10.2413 12.6822 10.8698 12.0538 11.4982C11.4253 12.1267 10.7969 11.4982 10.7969 11.4982L10.168 10.8702C10.168 10.8702 9.53956 10.2418 10.168 9.61289C10.7969 8.98444 11.4253 9.61289 11.4253 9.61289L12.0538 10.2413ZM21.3871 19.5747C21.3871 19.5747 22.0156 20.2031 21.3871 20.8316C20.7587 21.46 20.1302 20.8316 20.1302 20.8316L19.5018 20.2031C19.5018 20.2031 18.8733 19.5747 19.5018 18.9462C20.1302 18.3178 20.7587 18.9462 20.7587 18.9462L21.3871 19.5747ZM21.2036 11.4982C21.2036 11.4982 20.5751 12.1267 19.9467 11.4982C19.3182 10.8698 19.9467 10.2413 19.9467 10.2413L20.5751 9.61289C20.5751 9.61289 21.2036 8.98444 21.832 9.61289C22.4604 10.2413 21.832 10.8698 21.832 10.8698L21.2036 11.4982ZM11.8702 20.8316C11.8702 20.8316 11.2418 21.46 10.6133 20.8316C9.98489 20.2031 10.6133 19.5747 10.6133 19.5747L11.2418 18.9462C11.2418 18.9462 11.8702 18.3178 12.4987 18.9462C13.1271 19.5747 12.4987 20.2031 12.4987 20.2031L11.8702 20.8316ZM15.1111 21.2222C15.1111 21.2222 15.1111 20.3333 16 20.3333C16.8889 20.3333 16.8889 21.2222 16.8889 21.2222V22.1111C16.8889 22.1111 16.8889 23 16 23C15.1111 23 15.1111 22.1111 15.1111 22.1111V21.2222Z"
        fill="#E4A444" />
    <path
        d="M16.0001 19.4446C18.4547 19.4446 20.4446 17.4547 20.4446 15.0001C20.4446 12.5455 18.4547 10.5557 16.0001 10.5557C13.5455 10.5557 11.5557 12.5455 11.5557 15.0001C11.5557 17.4547 13.5455 19.4446 16.0001 19.4446Z"
        fill="#E4A444" />
    <g filter="url(#filter0_d_35_4631)">
        <rect x="43" y="3" width="24" height="24" rx="12" fill="#2FFE82" />
        <path
            d="M55.4095 23C53.157 23 51.0435 22.1269 49.4582 20.5418C47.873 18.9566 47 16.843 47 14.5904C46.9997 13.0365 47.4299 11.5129 48.243 10.1887C49.0561 8.86453 50.2203 7.79155 51.6062 7.08887C51.7488 7.01618 51.9096 6.9871 52.0686 7.00526C52.2277 7.02342 52.3778 7.08802 52.5003 7.19098C52.6229 7.29394 52.7123 7.43072 52.7576 7.58423C52.8029 7.73773 52.8019 7.90118 52.7549 8.05415C52.3594 9.33158 52.3205 10.6928 52.6425 11.9907C52.9644 13.2886 53.635 14.4739 54.5816 15.4184C55.261 16.1028 56.0693 16.6456 56.9599 17.0155C57.8504 17.3854 58.8055 17.575 59.7698 17.5732C60.5075 17.5738 61.241 17.4631 61.9458 17.245C62.0987 17.1979 62.2622 17.197 62.4157 17.2422C62.5693 17.2875 62.706 17.377 62.809 17.4995C62.912 17.6221 62.9766 17.7722 62.9947 17.9313C63.0129 18.0903 62.9838 18.2511 62.9111 18.3937C62.2084 19.7797 61.1354 20.9438 59.8112 21.7569C58.487 22.57 56.9634 23.0003 55.4095 23ZM51.5771 8.32573C50.5024 8.97963 49.6146 9.89983 48.9996 10.9973C48.3846 12.0948 48.0633 13.3324 48.0667 14.5904C48.0667 18.6393 51.3606 21.9333 55.4095 21.9333C56.6675 21.9367 57.9052 21.6154 59.0026 21.0004C60.1001 20.3854 61.0203 19.4976 61.6742 18.4229C61.0498 18.5674 60.4108 18.6403 59.7699 18.64C58.6654 18.6421 57.5715 18.4251 56.5515 18.0016C55.5315 17.5781 54.6056 16.9565 53.8275 16.1728C52.8166 15.1638 52.0794 13.9138 51.6857 12.5409C51.292 11.1679 51.2546 9.71712 51.5771 8.32573Z"
            fill="#151618" />
    </g>
    <defs>
        <filter id="filter0_d_35_4631" x="40" y="0" width="30" height="30" filterUnits="userSpaceOnUse"
            color-interpolation-filters="sRGB">
            <feFlood flood-opacity="0" result="BackgroundImageFix" />
            <feColorMatrix in="SourceAlpha" type="matrix" values="0 0 0 0 0 0 0 0 0 0 0 0 0 0 0 0 0 0 127 0"
                result="hardAlpha" />
            <feOffset />
            <feGaussianBlur stdDeviation="1.5" />
            <feComposite in2="hardAlpha" operator="out" />
            <feColorMatrix type="matrix" values="0 0 0 0 0.184314 0 0 0 0 0.996078 0 0 0 0 0.509804 0 0 0 0.7 0" />
            <feBlend mode="normal" in2="BackgroundImageFix" result="effect1_dropShadow_35_4631" />
            <feBlend mode="normal" in="SourceGraphic" in2="effect1_dropShadow_35_4631" result="shape" />
        </filter>
    </defs>
</svg>