<svg width="68" height="16" viewBox="0 0 68 16" fill="none" xmlns="http://www.w3.org/2000/svg">
<path d="M7.16047 0.504302C7.24605 0.350858 7.36863 0.223542 7.51599 0.135054C7.66334 0.0465665 7.83033 0 8.00029 0C8.17025 0 8.33724 0.0465665 8.4846 0.135054C8.63196 0.223542 8.75454 0.350858 8.84011 0.504302L11.0135 4.40295L15.2344 5.35852C15.4004 5.39622 15.5541 5.47874 15.6801 5.59784C15.8061 5.71695 15.9 5.86849 15.9525 6.03735C16.005 6.20621 16.0142 6.38649 15.9792 6.56023C15.9442 6.73396 15.8662 6.89508 15.7531 7.02751L12.8759 10.3923L13.3114 14.8817C13.3285 15.0585 13.301 15.2369 13.2316 15.3991C13.1622 15.5613 13.0532 15.7016 12.9157 15.806C12.7781 15.9105 12.6167 15.9754 12.4476 15.9942C12.2786 16.0131 12.1077 15.9853 11.9521 15.9136L8.00029 14.0935L4.04848 15.9136C3.8929 15.9853 3.72203 16.0131 3.55295 15.9942C3.38387 15.9754 3.22249 15.9105 3.08492 15.806C2.94735 15.7016 2.83841 15.5613 2.76898 15.3991C2.69954 15.2369 2.67204 15.0585 2.68922 14.8817L3.12468 10.3923L0.247525 7.02832C0.134171 6.8959 0.0560428 6.73472 0.0209402 6.56088C-0.0141624 6.38703 -0.00501128 6.20661 0.0474799 6.03762C0.0999711 5.86863 0.193966 5.71698 0.320081 5.59782C0.446195 5.47865 0.600017 5.39614 0.76619 5.35852L4.98705 4.40295L7.16047 0.504302Z" fill="#2FFE82"/>
<path d="M33.1605 0.504302C33.246 0.350858 33.3686 0.223542 33.516 0.135054C33.6633 0.0465665 33.8303 0 34.0003 0C34.1702 0 34.3372 0.0465665 34.4846 0.135054C34.632 0.223542 34.7545 0.350858 34.8401 0.504302L37.0135 4.40295L41.2344 5.35852C41.4004 5.39622 41.5541 5.47874 41.6801 5.59784C41.8061 5.71695 41.9 5.86849 41.9525 6.03735C42.005 6.20621 42.0142 6.38649 41.9792 6.56023C41.9442 6.73396 41.8662 6.89508 41.7531 7.02751L38.8759 10.3923L39.3114 14.8817C39.3285 15.0585 39.301 15.2369 39.2316 15.3991C39.1622 15.5613 39.0532 15.7016 38.9157 15.806C38.7781 15.9105 38.6167 15.9754 38.4476 15.9942C38.2786 16.0131 38.1077 15.9853 37.9521 15.9136L34.0003 14.0935L30.0485 15.9136C29.8929 15.9853 29.722 16.0131 29.553 15.9942C29.3839 15.9754 29.2225 15.9105 29.0849 15.806C28.9474 15.7016 28.8384 15.5613 28.769 15.3991C28.6995 15.2369 28.672 15.0585 28.6892 14.8817L29.1247 10.3923L26.2475 7.02832C26.1342 6.8959 26.056 6.73472 26.0209 6.56088C25.9858 6.38703 25.995 6.20661 26.0475 6.03762C26.1 5.86863 26.194 5.71698 26.3201 5.59782C26.4462 5.47865 26.6 5.39614 26.7662 5.35852L30.9871 4.40295L33.1605 0.504302Z" fill="#2FFE82"/>
<path d="M59.1605 0.504302C59.246 0.350858 59.3686 0.223542 59.516 0.135054C59.6633 0.0465665 59.8303 0 60.0003 0C60.1702 0 60.3372 0.0465665 60.4846 0.135054C60.632 0.223542 60.7545 0.350858 60.8401 0.504302L63.0135 4.40295L67.2344 5.35852C67.4004 5.39622 67.5541 5.47874 67.6801 5.59784C67.8061 5.71695 67.9 5.86849 67.9525 6.03735C68.005 6.20621 68.0142 6.38649 67.9792 6.56023C67.9442 6.73396 67.8662 6.89508 67.7531 7.02751L64.8759 10.3923L65.3114 14.8817C65.3285 15.0585 65.301 15.2369 65.2316 15.3991C65.1622 15.5613 65.0532 15.7016 64.9157 15.806C64.7781 15.9105 64.6167 15.9754 64.4476 15.9942C64.2786 16.0131 64.1077 15.9853 63.9521 15.9136L60.0003 14.0935L56.0485 15.9136C55.8929 15.9853 55.722 16.0131 55.553 15.9942C55.3839 15.9754 55.2225 15.9105 55.0849 15.806C54.9474 15.7016 54.8384 15.5613 54.769 15.3991C54.6995 15.2369 54.672 15.0585 54.6892 14.8817L55.1247 10.3923L52.2475 7.02832C52.1342 6.8959 52.056 6.73472 52.0209 6.56088C51.9858 6.38703 51.995 6.20661 52.0475 6.03762C52.1 5.86863 52.194 5.71698 52.3201 5.59782C52.4462 5.47865 52.6 5.39614 52.7662 5.35852L56.9871 4.40295L59.1605 0.504302Z" fill="#2FFE82"/>
</svg>
