<svg width="69" height="16" viewBox="0 0 69 16" fill="none" xmlns="http://www.w3.org/2000/svg">
<path d="M7.66047 0.504302C7.74605 0.350858 7.86862 0.223542 8.01598 0.135054C8.16334 0.0465665 8.33033 0 8.50029 0C8.67025 0 8.83724 0.0465665 8.9846 0.135054C9.13196 0.223542 9.25454 0.350858 9.34011 0.504302L11.5135 4.40295L15.7344 5.35852C15.9004 5.39622 16.0541 5.47874 16.1801 5.59784C16.3061 5.71695 16.4 5.86849 16.4525 6.03735C16.505 6.20621 16.5142 6.38649 16.4792 6.56023C16.4442 6.73396 16.3662 6.89508 16.2531 7.02751L13.3759 10.3923L13.8114 14.8817C13.8285 15.0585 13.801 15.2369 13.7316 15.3991C13.6622 15.5613 13.5532 15.7016 13.4157 15.806C13.2781 15.9105 13.1167 15.9754 12.9476 15.9942C12.7786 16.0131 12.6077 15.9853 12.4521 15.9136L8.50029 14.0935L4.54848 15.9136C4.3929 15.9853 4.22203 16.0131 4.05295 15.9942C3.88387 15.9754 3.72249 15.9105 3.58492 15.806C3.44735 15.7016 3.33841 15.5613 3.26898 15.3991C3.19954 15.2369 3.17204 15.0585 3.18922 14.8817L3.62468 10.3923L0.747525 7.02832C0.634171 6.8959 0.556043 6.73472 0.52094 6.56087C0.485838 6.38703 0.494989 6.20661 0.54748 6.03762C0.599971 5.86863 0.693966 5.71698 0.820081 5.59782C0.946195 5.47865 1.10002 5.39614 1.26619 5.35852L5.48705 4.40295L7.66047 0.504302Z" fill="#2FFE82"/>
<path d="M33.6605 0.504302C33.746 0.350858 33.8686 0.223542 34.016 0.135054C34.1633 0.0465665 34.3303 0 34.5003 0C34.6702 0 34.8372 0.0465665 34.9846 0.135054C35.132 0.223542 35.2545 0.350858 35.3401 0.504302L37.5135 4.40295L41.7344 5.35852C41.9004 5.39622 42.0541 5.47874 42.1801 5.59784C42.3061 5.71695 42.4 5.86849 42.4525 6.03735C42.505 6.20621 42.5142 6.38649 42.4792 6.56023C42.4442 6.73396 42.3662 6.89508 42.2531 7.02751L39.3759 10.3923L39.8114 14.8817C39.8285 15.0585 39.801 15.2369 39.7316 15.3991C39.6622 15.5613 39.5532 15.7016 39.4157 15.806C39.2781 15.9105 39.1167 15.9754 38.9476 15.9942C38.7786 16.0131 38.6077 15.9853 38.4521 15.9136L34.5003 14.0935L30.5485 15.9136C30.3929 15.9853 30.222 16.0131 30.053 15.9942C29.8839 15.9754 29.7225 15.9105 29.5849 15.806C29.4474 15.7016 29.3384 15.5613 29.269 15.3991C29.1995 15.2369 29.172 15.0585 29.1892 14.8817L29.6247 10.3923L26.7475 7.02832C26.6342 6.8959 26.556 6.73472 26.5209 6.56088C26.4858 6.38703 26.495 6.20661 26.5475 6.03762C26.6 5.86863 26.694 5.71698 26.8201 5.59782C26.9462 5.47865 27.1 5.39614 27.2662 5.35852L31.4871 4.40295L33.6605 0.504302Z" fill="#2FFE82"/>
<path d="M63.0768 4.64642L63.1855 4.84134L63.4031 4.89061L67.6237 5.84611C67.6237 5.84611 67.6237 5.84611 67.6237 5.84611C67.7007 5.86361 67.7744 5.90241 67.8366 5.96119C67.8989 6.02012 67.9475 6.09713 67.975 6.18573L68.4525 6.03735L67.975 6.18573C68.0026 6.2744 68.0075 6.36971 67.989 6.46151C67.9705 6.55326 67.9297 6.6362 67.8729 6.70271L64.9959 10.0674L64.8577 10.229L64.8782 10.4406L65.3137 14.93L65.3137 14.9301C65.3228 15.0238 65.3081 15.1178 65.272 15.2023C65.2358 15.2866 65.1803 15.3569 65.1133 15.4078C65.0465 15.4585 64.9701 15.4886 64.8921 15.4973C64.8142 15.506 64.7348 15.4934 64.6614 15.4595L64.6613 15.4595L60.7095 13.6394L60.5003 13.543L60.2911 13.6394L56.3393 15.4595L56.3392 15.4595C56.2657 15.4934 56.1864 15.506 56.1085 15.4973C56.0305 15.4886 55.9541 15.4585 55.8873 15.4078L55.5849 15.806L55.8873 15.4078C55.8202 15.3569 55.7647 15.2866 55.7286 15.2023C55.6925 15.1178 55.6778 15.0238 55.6869 14.9301L55.6869 14.93L56.1223 10.4406L56.1429 10.2289L56.0047 10.0673L53.1275 6.70334L53.1274 6.70318C53.0705 6.63669 53.0296 6.55372 53.011 6.46191C52.9925 6.37006 52.9974 6.27467 53.025 6.18593C53.0525 6.09727 53.1011 6.0202 53.1635 5.96124C53.2257 5.90243 53.2995 5.86363 53.3766 5.84618L57.5975 4.89061L57.8151 4.84134L57.9238 4.64642L60.0972 0.747832C60.1412 0.668932 60.2027 0.606182 60.2734 0.563708L60.0179 0.138312L60.2734 0.563708C60.3439 0.521346 60.4221 0.5 60.5003 0.5C60.5785 0.5 60.6566 0.521346 60.7272 0.563708C60.7979 0.60617 60.8594 0.668896 60.9034 0.747765C60.9034 0.747787 60.9034 0.747809 60.9034 0.747831L63.0768 4.64642Z" stroke="#2FFE82" stroke-opacity="0.3"/>
</svg>
