<svg width="283" height="59" viewBox="0 0 283 59" fill="none" xmlns="http://www.w3.org/2000/svg">
    <path
        d="M15.6435 24.3206L18.5839 47.9087H18.8452L29.6265 24.3206H39.885L23.2884 57.7751H10.8736L5.38499 24.3206H15.6435ZM37.5531 57.7751L43.1071 24.3206H67.2179L65.9764 31.6388H50.948L50.0332 37.3888H63.8202L62.5787 44.707H48.7918L47.877 50.457H62.8401L61.5986 57.7751H37.5531ZM81.0661 24.3206L84.9212 34.0564H85.1826L92.3701 24.3206H102.89L90.1485 41.0479L97.728 57.7751H87.6002L83.5491 47.8433H83.2877L75.9695 57.7751H65.3843L78.4525 41.0479L71.265 24.3206H81.0661ZM109.943 57.7751H100.142L116.738 24.3206H129.153L134.642 57.7751H124.84L121.573 33.5337H121.312L109.943 57.7751ZM110.335 44.5763H128.761L127.585 51.3717H109.159L110.335 44.5763Z"
        fill="#F6F7FA" />
    <path
        d="M172.478 35.3632C172.434 34.786 172.315 34.2796 172.119 33.844C171.923 33.3975 171.645 33.0218 171.286 32.7169C170.926 32.4011 170.48 32.167 169.946 32.0145C169.423 31.8511 168.808 31.7695 168.1 31.7695C166.576 31.7695 165.187 32.1343 163.935 32.8639C162.682 33.5936 161.631 34.6445 160.782 36.0166C159.943 37.3888 159.366 39.0441 159.05 40.9825C158.724 42.9428 158.697 44.6198 158.969 46.0138C159.241 47.4077 159.829 48.475 160.733 49.2155C161.648 49.956 162.884 50.3263 164.441 50.3263C165.835 50.3263 167.038 50.1248 168.051 49.7219C169.064 49.3189 169.875 48.7472 170.485 48.0067C171.095 47.2661 171.476 46.3949 171.629 45.393L173.197 45.5564H165.552L166.597 39.0876H181.43L180.678 43.7269C180.177 46.7761 179.099 49.3843 177.444 51.5514C175.8 53.7077 173.752 55.363 171.302 56.5173C168.852 57.6608 166.162 58.2325 163.232 58.2325C159.987 58.2325 157.248 57.541 155.016 56.158C152.783 54.7749 151.188 52.8038 150.229 50.2446C149.282 47.6854 149.097 44.6416 149.674 41.1132C150.131 38.3471 150.959 35.8968 152.157 33.7624C153.366 31.6279 154.841 29.8256 156.584 28.3554C158.326 26.8743 160.248 25.7581 162.35 25.0067C164.452 24.2444 166.63 23.8632 168.884 23.8632C170.855 23.8632 172.647 24.1464 174.259 24.7126C175.87 25.268 177.248 26.063 178.391 27.0976C179.535 28.1213 180.39 29.3355 180.956 30.7403C181.533 32.1452 181.767 33.6861 181.658 35.3632H172.478ZM217.649 41.6359C217.039 45.2733 215.83 48.3225 214.023 50.7837C212.215 53.2448 210.02 55.1016 207.439 56.354C204.859 57.6063 202.098 58.2325 199.158 58.2325C196.021 58.2325 193.299 57.5519 190.99 56.1906C188.681 54.8294 186.999 52.8365 185.942 50.2119C184.886 47.5874 184.674 44.3803 185.305 40.5905C185.893 36.9532 187.091 33.893 188.899 31.4101C190.707 28.9271 192.912 27.0486 195.515 25.7744C198.118 24.5003 200.9 23.8632 203.862 23.8632C206.977 23.8632 209.683 24.5493 211.981 25.9215C214.289 27.2936 215.966 29.3028 217.012 31.9492C218.068 34.5955 218.281 37.8244 217.649 41.6359ZM208.501 40.5905C208.806 38.6738 208.828 37.0621 208.567 35.7553C208.305 34.4376 207.755 33.4465 206.917 32.7822C206.078 32.1071 204.951 31.7695 203.535 31.7695C201.924 31.7695 200.497 32.1615 199.256 32.9456C198.014 33.7297 196.985 34.8568 196.168 36.327C195.351 37.7972 194.78 39.5668 194.453 41.6359C194.105 43.5744 194.072 45.1861 194.355 46.4712C194.649 47.7562 195.226 48.72 196.087 49.3625C196.958 50.005 198.09 50.3263 199.484 50.3263C201.074 50.3263 202.479 49.9451 203.699 49.1828C204.929 48.4205 205.948 47.3152 206.753 45.8668C207.57 44.4184 208.153 42.6596 208.501 40.5905ZM219.172 57.7751L224.726 24.3206H233.809L229.496 50.457H243.022L241.78 57.7751H219.172ZM258.52 57.7751H245.452L251.006 24.3206H263.551C266.992 24.3206 269.867 25.0121 272.176 26.3952C274.485 27.7782 276.124 29.7548 277.093 32.3249C278.062 34.8949 278.253 37.9551 277.665 41.5053C277.098 44.9248 275.949 47.8488 274.218 50.2773C272.497 52.7058 270.297 54.5626 267.618 55.8476C264.95 57.1326 261.917 57.7751 258.52 57.7751ZM255.808 50.0649H259.108C260.763 50.0649 262.239 49.7763 263.535 49.1992C264.841 48.6111 265.931 47.631 266.802 46.2588C267.684 44.8758 268.321 42.9863 268.713 40.5905C269.083 38.3253 269.072 36.5775 268.68 35.3469C268.288 34.1054 267.542 33.2451 266.442 32.7659C265.342 32.2759 263.921 32.0308 262.179 32.0308H258.814L255.808 50.0649Z"
        fill="#2FFE82" />
    <path
        d="M262.106 1.38488C260.838 1.13796 259.61 1.9653 259.363 3.23357C259.155 4.30155 259.71 5.33997 260.647 5.7893L257.239 10.775C258.256 11.172 258.876 12.251 258.659 13.3614C258.416 14.6107 257.207 15.4271 255.958 15.1839C254.709 14.9407 253.895 13.7301 254.138 12.4808C254.311 11.5926 254.972 10.9248 255.788 10.6993L253.438 4.77936C254.045 4.49633 254.513 3.93801 254.651 3.22954C254.88 2.05421 254.115 0.914639 252.94 0.685831C251.765 0.456997 250.626 1.22601 250.398 2.40115C250.169 3.57648 250.936 4.71458 252.111 4.94339C252.16 4.95289 252.209 4.96145 252.257 4.96758L252.94 12.4808L252.104 20.5892L273.096 24.6774L275.354 17.1664L278.818 10.1404C278.866 10.1529 278.914 10.1635 278.963 10.1729C280.138 10.4017 281.276 9.63472 281.505 8.45945C281.734 7.28412 280.967 6.14416 279.792 5.91535C278.617 5.68653 277.478 6.45556 277.25 7.63069C277.111 8.34299 277.34 9.04009 277.802 9.53086L273.408 14.1588C274.05 14.6782 274.391 15.5252 274.222 16.3924C273.979 17.6417 272.77 18.4581 271.521 18.2149C270.272 17.9717 269.458 16.7611 269.701 15.5118C269.922 14.3752 270.943 13.5978 272.065 13.6496L270.812 7.78387C271.873 7.74387 272.806 6.98038 273.018 5.89293C273.265 4.62453 272.437 3.39694 271.169 3.15002C269.901 2.90305 268.673 3.73039 268.426 4.99866C268.235 5.98168 268.69 6.94024 269.494 7.43678L265.553 11.9073C266.466 12.3967 266.996 13.4372 266.788 14.5071C266.532 15.8221 265.258 16.6804 263.943 16.4244C262.628 16.1683 261.771 14.8951 262.028 13.58C262.224 12.573 263.016 11.8348 263.966 11.6585L262.027 5.99122C262.969 5.84059 263.762 5.11878 263.955 4.12779C264.202 2.85938 263.374 1.63183 262.106 1.38488ZM251.86 21.8301C250.219 21.7699 249.826 24.1812 251.623 24.5311L252.065 24.6172L252.065 24.641L271.614 28.4481L271.623 28.4261L272.129 28.5247C273.859 28.8615 274.446 26.4988 272.931 25.9339L251.86 21.8301Z"
        fill="#E4A444" />
</svg>


